<svg xmlns="http://www.w3.org/2000/svg" viewBox="0 0 96 96">
  <defs>
    <linearGradient id="ghBg" x1="0" y1="0" x2="0" y2="96"><stop offset="0" stop-color="#0b2f52"/><stop offset=".6" stop-color="#0f6e5c"/><stop offset="1" stop-color="#0a4d3f"/></linearGradient>
    <radialGradient id="ghSun" cx="50%" cy="50%" r="50%"><stop offset="0" stop-color="#fff7d6"/><stop offset="1" stop-color="#ffb84d"/></radialGradient>
    <filter id="ghGlow" x="-80%" y="-80%" width="260%" height="260%"><feGaussianBlur stdDeviation="6"/></filter>
  </defs>
  <rect width="96" height="96" rx="22" fill="url(#ghBg)"/>
  <circle cx="48" cy="52" r="30" fill="#ffcf6b" opacity=".55" filter="url(#ghGlow)"/>
  <circle cx="48" cy="52" r="21" fill="url(#ghSun)"/>
  <path d="M14 86C14 74 30 66 48 66 66 66 82 74 82 86Z" fill="#08281f"/>
  <path d="M48 66V48" stroke="#081711" stroke-width="5" stroke-linecap="round"/>
  <path d="M48 50C40 50 36 42 37 34 45 36 48 43 48 50Z" fill="#081711"/>
  <path d="M48 55C56 55 60 47 59 39 51 41 48 48 48 55Z" fill="#081711" opacity=".95"/>
</svg>
